<svg fill="none" height="539" viewBox="0 0 1153 539" width="1153" xmlns="http://www.w3.org/2000/svg"><g fill="#fff"><path d="m156.631 331.081-90.7668-124.988h-28.0518v124.988h-37.8124v-266.2634l59.1201-2.0092c25.6865-.9327 46.7809 1.147 63.0689 6.1695 14.278 4.4485 25.902 12.4132 34.943 23.7497 9.04 11.3364 13.561 24.3944 13.561 39.1754 0 36.018-22.098 58.907-66.225 68.665l94.708 130.441h-42.545zm-118.8186-137.688h11.0497c21.525 0 39.1028-4.377 52.8069-13.059 16.359-10.26 24.538-25.614 24.538-45.919 0-17.005-5.309-30.709-15.856-41.041-10.5477-10.332-24.3957-15.4991-41.5439-15.4991-7.6773 0-18.0098 1.2917-31.0683 3.8029v111.7152z"/><path d="m329.781 330.936h-97.054v-268.2009h97.632l-22.559 14.6355h-48.255v106.0464 14.422 88.396c0 9.256-.002 14.28.213 15.212.79 6.171 3.085 10.332 6.888 12.485 2.655 1.578 7.678 2.366 15.068 2.366h26.375z"/><path d="m640.827 322.111c-23.319 10.045-45.705 14.996-67.087 14.996-44.413 0-78.854-16.502-103.249-49.435-18.225-24.538-27.337-53.382-27.337-86.674 0-26.763 5.955-51.302 17.937-73.616 11.911-22.314 28.342-39.6775 49.293-52.0903 20.88-12.4845 43.984-18.7275 69.312-18.7275 20.162 0 37.737 4.5213 52.59 13.6335 17.937 11.0495 33.651 28.5569 47.068 52.4493l-6.096 3.945c-15.928-22.171-30.566-36.9505-43.912-44.3408-13.704-7.6772-29.202-11.4806-46.494-11.4806-17.291 0-33.865 4.4493-48.287 13.418-30.853 19.5164-46.28 58.5484-46.28 117.0964 0 24.252 3.873 45.345 11.694 63.21 7.749 17.866 19.659 31.642 35.588 41.257 15.283 9.255 32.934 13.849 53.024 13.849 13.346 0 32.361-6.961 57.186-20.809v-61.704c0-5.381-.359-8.394-1.005-8.897-.646-.502-1.29-1.148-2.008-1.793-4.233-8.467-14.997-12.629-32.217-12.629v-23.318h74.188l.217 106.619c-19.802 11.05-34.511 19.372-44.125 24.897z"/><path d="m825.825 59.6145h6.958l123.194 274.3715h-49.938l-8.464-22.959c-.933-2.655-4.878-12.054-11.838-28.198l-16.287-38.602h-103.751l-38.747 89.831h-20.019l118.892-274.3717zm38.1 169.9755-45.419-108.342-46.711 108.342z"/><path d="m1147.07 330.972h-169.112v-267.8436l37.952-.4292v220.5598c0 11.049 1.08 18.582 3.16 22.528 2.37 4.449 8.25 7.176 17.58 8.109h115.95l-5.53 17.004z"/><path d="m283.802 306.315v-11.96l108.824 68.017-34.48-82.099c-2.152-5.125-8.239-6.65-12.737-3.812-1.559-8.35-8.86-14.68-17.665-14.68-3.923 0-7.526 1.29-10.485 3.421 16.349 0 19.079 21.413 3.011 21.413-20.94 0-37.646-18.129-35.275-39.55 1.748-15.777 14.271-28.792 29.983-31.067 16.416-2.375 31.038 6.512 37.401 20.049 2.979-3.548 4.779-8.116 4.779-13.109 0-3.967-1.149-7.656-3.108-10.79 6.963 2.416 16.507 4.958 25.942 4.958 17.976 0 41.295-19.92 41.295-19.92s-23.319-19.92-41.295-19.92c-9.435 0-18.979 2.542-25.942 4.958 1.959-3.134 3.108-6.823 3.108-10.79 0-4.993-1.8-9.564-4.779-13.112-6.363 13.537-20.985 22.424-37.401 20.049-15.709-2.275-28.235-15.287-29.983-31.064-2.371-21.421 14.335-39.55 35.275-39.55 16.068 0 13.338 21.412-3.011 21.412 2.959 2.132 6.562 3.422 10.485 3.422 8.805 0 16.103-6.327 17.665-14.68 4.495 2.838 10.582 1.316 12.737-3.812l34.48-82.099-108.824 68.017v-11.9601c0-5.1398-5.483-8.4236-10.013-5.9959-2.207 1.1845-3.588 3.489-3.588 5.9959v109.1321 109.126c0 2.507 1.381 4.809 3.588 5.996 4.53 2.428 10.013-.856 10.013-5.996zm69.146.369c0 5.011-4.061 9.072-9.075 9.072-5.011 0-9.072-4.064-9.072-9.072 0-5.01 4.061-9.074 9.072-9.074 5.014 0 9.075 4.064 9.075 9.074zm-18.144-218.9907c0-5.0108 4.061-9.0716 9.072-9.0716s9.074 4.0638 9.074 9.0716c0 5.0108-4.06 9.0746-9.074 9.0746-5.011 0-9.072-4.0638-9.072-9.0746zm28.403 109.4957s6.535-6.876 14.595-6.876 14.596 6.876 14.596 6.876-6.536 6.875-14.596 6.875c-8.063 0-14.595-6.875-14.595-6.875z"/><path d="m368.035 469.811-.295-8.85 41.694-42.874h8.358l-30.385 31.861-4.13 4.425zm-6.294 17.11v-68.834h7.277v68.834zm49.463 0-29.697-34.22 4.916-5.31 33.434 39.53zm20.447 0v-68.834h7.277v68.834zm43.047 0v-62.54h-24.19v-6.294h55.657v6.294h-24.19v62.54zm72.026.59c-5.179 0-9.965-.852-14.357-2.556-4.393-1.77-8.195-4.229-11.407-7.375-3.212-3.147-5.736-6.851-7.572-11.112-1.77-4.261-2.655-8.916-2.655-13.964s.885-9.702 2.655-13.963c1.836-4.261 4.36-7.965 7.572-11.112 3.278-3.147 7.113-5.572 11.505-7.277 4.392-1.77 9.178-2.655 14.357-2.655 4.982 0 9.669.852 14.062 2.557 4.392 1.639 8.096 4.13 11.112 7.473l-4.622 4.622c-2.819-2.885-5.933-4.95-9.342-6.195-3.409-1.311-7.08-1.967-11.013-1.967-4.13 0-7.966.721-11.506 2.164-3.54 1.376-6.621 3.376-9.243 5.998-2.622 2.557-4.687 5.572-6.195 9.047-1.442 3.409-2.163 7.178-2.163 11.308s.721 7.933 2.163 11.407c1.508 3.409 3.573 6.425 6.195 9.047 2.622 2.557 5.703 4.556 9.243 5.998 3.54 1.377 7.376 2.065 11.506 2.065 3.933 0 7.604-.655 11.013-1.966 3.409-1.312 6.523-3.409 9.342-6.294l4.622 4.622c-3.016 3.343-6.72 5.867-11.112 7.572-4.393 1.704-9.113 2.556-14.16 2.556zm91.131-69.424h7.179v68.834h-7.179zm-43.07 68.834h-7.277v-68.834h7.277zm43.759-31.762h-44.546v-6.391h44.546zm35.447-6.293h36.384v6.195h-36.384zm.787 31.762h41.398v6.293h-48.675v-68.834h47.2v6.294h-39.923zm58.503 6.293v-68.834h5.999l47.495 59.788h-3.146v-59.788h7.178v68.834h-5.998l-47.398-59.787h3.147v59.787z"/></g></svg>