<svg width="1153" height="475" viewBox="0 0 1153 475" fill="none" xmlns="http://www.w3.org/2000/svg">
<path d="M156.631 299.081L65.8642 174.093H37.8124V299.081H0V32.8179L59.1201 30.8087C84.8066 29.8759 105.901 31.9557 122.189 36.9782C136.467 41.4267 148.091 49.3913 157.132 60.7278C166.172 72.0643 170.693 85.1225 170.693 99.903C170.693 135.922 148.595 158.81 104.468 168.568L199.176 299.009H156.631V299.081ZM37.8124 161.393H48.8621C70.3871 161.393 87.9649 157.016 101.669 148.334C118.028 138.074 126.207 122.72 126.207 102.415C126.207 85.4102 120.898 71.7062 110.351 61.3742C99.8033 51.0422 85.9553 45.8751 68.8071 45.8751C61.1298 45.8751 50.7973 47.1668 37.7388 49.6781V161.393H37.8124Z" fill="black"/>
<path d="M329.781 298.935H232.727V30.7349H330.359L307.8 45.3704H259.545V151.417V165.839V254.235C259.545 263.491 259.543 268.514 259.758 269.447C260.548 275.618 262.843 279.779 266.646 281.931C269.301 283.51 274.324 284.298 281.714 284.298H308.089L329.781 298.935Z" fill="black"/>
<path d="M640.827 290.111C617.508 300.156 595.122 305.107 573.74 305.107C529.327 305.107 494.886 288.606 470.491 255.672C452.266 231.134 443.154 202.29 443.154 168.998C443.154 142.235 449.109 117.697 461.091 95.3825C473.002 73.0683 489.433 55.7047 510.384 43.292C531.264 30.8075 554.368 24.5645 579.696 24.5645C599.858 24.5645 617.433 29.0858 632.286 38.198C650.223 49.2475 665.937 66.7549 679.354 90.6476L673.258 94.5925C657.33 72.4217 642.692 57.6417 629.346 50.2515C615.642 42.5742 600.144 38.7708 582.852 38.7708C565.561 38.7708 548.987 43.2201 534.565 52.1889C503.712 71.7049 488.285 110.737 488.285 169.285C488.285 193.537 492.158 214.63 499.979 232.496C507.728 250.361 519.638 264.137 535.567 273.752C550.85 283.008 568.501 287.601 588.591 287.601C601.937 287.601 620.952 280.64 645.777 266.792V205.088C645.777 199.707 645.418 196.694 644.772 196.192C644.126 195.689 643.482 195.044 642.764 194.398C638.531 185.931 627.767 181.77 610.547 181.77V158.451H684.735L684.952 265.07C665.15 276.12 650.441 284.443 640.827 289.967V290.111Z" fill="black"/>
<path d="M825.825 27.6147H832.783L955.977 301.986H906.039L897.575 279.027C896.642 276.372 892.697 266.973 885.737 250.83L869.45 212.227H765.699L726.952 302.058H706.933L825.825 27.6866V27.6147ZM863.925 197.59L818.506 89.2486L771.795 197.59H863.925Z" fill="black"/>
<path d="M1147.07 298.972H977.958V31.1284L1015.91 30.6992V251.259C1015.91 262.308 1016.99 269.841 1019.07 273.787C1021.44 278.236 1027.32 280.963 1036.65 281.896H1152.6L1147.07 298.9V298.972Z" fill="black"/>
<path d="M283.802 274.315L283.802 262.355L392.626 330.372L358.146 248.273C355.994 243.148 349.907 241.623 345.409 244.461C343.85 236.111 336.549 229.781 327.744 229.781C323.821 229.781 320.218 231.071 317.259 233.202C333.608 233.202 336.338 254.615 320.27 254.615C299.33 254.615 282.624 236.486 284.995 215.065C286.743 199.288 299.266 186.273 314.978 183.998C331.394 181.623 346.016 190.51 352.379 204.047C355.358 200.499 357.158 195.931 357.158 190.938C357.158 186.971 356.009 183.282 354.05 180.148C361.013 182.564 370.557 185.106 379.992 185.106C397.968 185.106 421.287 165.186 421.287 165.186C421.287 165.186 397.968 145.266 379.992 145.266C370.557 145.266 361.013 147.808 354.05 150.224C356.009 147.09 357.158 143.401 357.158 139.434C357.158 134.441 355.358 129.87 352.379 126.322C346.016 139.859 331.394 148.746 314.978 146.371C299.269 144.096 286.743 131.084 284.995 115.307C282.624 93.8856 299.33 75.757 320.27 75.757C336.338 75.757 333.608 97.1694 317.259 97.1694C320.218 99.301 323.821 100.591 327.744 100.591C336.549 100.591 343.847 94.2638 345.409 85.9105C349.904 88.7487 355.991 87.2269 358.146 82.0989L392.626 -1.25278e-06L283.802 68.0165L283.802 56.0569C283.802 50.9171 278.319 47.6333 273.789 50.061C271.582 51.2455 270.201 53.55 270.201 56.0569L270.201 165.189L270.201 274.315C270.201 276.822 271.582 279.124 273.789 280.311C278.319 282.739 283.802 279.455 283.802 274.315ZM352.948 274.684C352.948 279.695 348.887 283.756 343.873 283.756C338.862 283.756 334.801 279.692 334.801 274.684C334.801 269.674 338.862 265.61 343.873 265.61C348.887 265.61 352.948 269.674 352.948 274.684ZM334.804 55.6933C334.804 50.6825 338.865 46.6217 343.876 46.6217C348.887 46.6217 352.95 50.6855 352.95 55.6933C352.95 60.7041 348.89 64.7679 343.876 64.7679C338.865 64.7679 334.804 60.7041 334.804 55.6933ZM363.207 165.189C363.207 165.189 369.742 158.313 377.802 158.313C385.862 158.313 392.398 165.189 392.398 165.189C392.398 165.189 385.862 172.064 377.802 172.064C369.739 172.064 363.207 165.189 363.207 165.189Z" fill="black"/>
<path d="M368.035 437.811L367.74 428.961L409.434 386.087H417.792L387.407 417.948L383.277 422.373L368.035 437.811ZM361.741 454.921V386.087H369.018V454.921H361.741ZM411.204 454.921L381.507 420.701L386.423 415.391L419.857 454.921H411.204ZM431.651 454.921V386.087H438.928V454.921H431.651ZM474.698 454.921V392.381H450.508V386.087H506.165V392.381H481.975V454.921H474.698ZM546.724 455.511C541.545 455.511 536.759 454.659 532.367 452.955C527.974 451.185 524.172 448.726 520.96 445.58C517.748 442.433 515.224 438.729 513.388 434.468C511.618 430.207 510.733 425.552 510.733 420.504C510.733 415.456 511.618 410.802 513.388 406.541C515.224 402.28 517.748 398.576 520.96 395.429C524.238 392.282 528.073 389.857 532.465 388.152C536.857 386.382 541.643 385.497 546.822 385.497C551.804 385.497 556.491 386.349 560.884 388.054C565.276 389.693 568.98 392.184 571.996 395.527L567.374 400.149C564.555 397.264 561.441 395.199 558.032 393.954C554.623 392.643 550.952 391.987 547.019 391.987C542.889 391.987 539.053 392.708 535.513 394.151C531.973 395.527 528.892 397.527 526.27 400.149C523.648 402.706 521.583 405.721 520.075 409.196C518.633 412.605 517.912 416.374 517.912 420.504C517.912 424.634 518.633 428.437 520.075 431.911C521.583 435.32 523.648 438.336 526.27 440.958C528.892 443.515 531.973 445.514 535.513 446.956C539.053 448.333 542.889 449.021 547.019 449.021C550.952 449.021 554.623 448.366 558.032 447.055C561.441 445.743 564.555 443.646 567.374 440.761L571.996 445.383C568.98 448.726 565.276 451.25 560.884 452.955C556.491 454.659 551.771 455.511 546.724 455.511ZM637.855 386.087H645.034V454.921H637.855V386.087ZM594.785 454.921H587.508V386.087H594.785V454.921ZM638.544 423.159H593.998V416.768H638.544V423.159ZM673.991 416.866H710.375V423.061H673.991V416.866ZM674.778 448.628H716.176V454.921H667.501V386.087H714.701V392.381H674.778V448.628ZM733.281 454.921V386.087H739.28L786.775 445.875H783.629V386.087H790.807V454.921H784.809L737.411 395.134H740.558V454.921H733.281Z" fill="black"/>
</svg>
