<svg fill="none" height="476" viewBox="0 0 1153 476" width="1153" xmlns="http://www.w3.org/2000/svg"><g fill="#1b2a39"><path d="m156.631 299.652-90.7668-124.988h-28.0518v124.988h-37.8124v-266.2628l59.1201-2.0093c25.6865-.9327 46.7809 1.1471 63.0689 6.1696 14.278 4.4485 25.902 12.4131 34.943 23.7496 9.04 11.3365 13.561 24.3947 13.561 39.1749 0 36.019-22.098 58.908-66.225 68.666l94.708 130.44h-42.545zm-118.8186-137.687h11.0497c21.525 0 39.1028-4.378 52.8069-13.059 16.359-10.261 24.538-25.615 24.538-45.92 0-17.0045-5.309-30.7085-15.856-41.0405-10.5477-10.332-24.3957-15.4991-41.5439-15.4991-7.6773 0-18.0098 1.2917-31.0683 3.8029v111.7157z"/><path d="m329.781 299.507h-97.054v-268.2008h97.632l-22.559 14.6355h-48.255v106.0463 14.422 88.397c0 9.255-.002 14.279.213 15.211.79 6.171 3.085 10.332 6.888 12.485 2.655 1.578 7.678 2.366 15.068 2.366h26.375z"/><path d="m640.827 290.682c-23.319 10.045-45.705 14.997-67.087 14.997-44.413 0-78.854-16.502-103.249-49.435-18.225-24.539-27.337-53.383-27.337-86.675 0-26.762 5.955-51.301 17.937-73.6152 11.911-22.3143 28.342-39.6778 49.293-52.0906 20.88-12.4844 43.984-18.7275 69.312-18.7275 20.162 0 37.737 4.5213 52.59 13.6336 17.937 11.0495 33.651 28.5569 47.068 52.4496l-6.096 3.9449c-15.928-22.1708-30.566-36.9508-43.912-44.341-13.704-7.6773-29.202-11.4807-46.494-11.4807-17.291 0-33.865 4.4493-48.287 13.4181-30.853 19.516-46.28 58.5488-46.28 117.0968 0 24.251 3.873 45.344 11.694 63.21 7.749 17.866 19.659 31.642 35.588 41.256 15.283 9.256 32.934 13.849 53.024 13.849 13.346 0 32.361-6.961 57.186-20.808v-61.704c0-5.382-.359-8.395-1.005-8.897s-1.29-1.148-2.008-1.794c-4.233-8.466-14.997-12.628-32.217-12.628v-23.319h74.188l.217 106.62c-19.802 11.049-34.511 19.372-44.125 24.897z"/><path d="m825.825 28.186h6.958l123.194 274.372h-49.938l-8.464-22.96c-.933-2.655-4.878-12.053-11.838-28.197l-16.287-38.603h-103.751l-38.747 89.832h-20.019l118.892-274.3721zm38.1 169.975-45.419-108.3411-46.711 108.3411z"/><path d="m1147.07 299.543h-169.112v-267.8433l37.952-.4292v220.5595c0 11.049 1.08 18.582 3.16 22.529 2.37 4.448 8.25 7.175 17.58 8.108h115.95l-5.53 17.004z"/><path d="m283.802 274.886v-11.959l108.824 68.016-34.48-82.099c-2.152-5.125-8.239-6.65-12.737-3.811-1.559-8.351-8.86-14.681-17.665-14.681-3.923 0-7.526 1.29-10.485 3.422 16.349 0 19.079 21.412 3.011 21.412-20.94 0-37.646-18.128-35.275-39.55 1.748-15.777 14.271-28.792 29.983-31.067 16.416-2.375 31.038 6.512 37.401 20.049 2.979-3.548 4.779-8.116 4.779-13.109 0-3.967-1.149-7.655-3.108-10.79 6.963 2.416 16.507 4.958 25.942 4.958 17.976 0 41.295-19.92 41.295-19.92s-23.319-19.92-41.295-19.92c-9.435 0-18.979 2.542-25.942 4.958 1.959-3.134 3.108-6.822 3.108-10.789 0-4.994-1.8-9.565-4.779-13.112-6.363 13.537-20.985 22.424-37.401 20.049-15.709-2.276-28.235-15.288-29.983-31.065-2.371-21.4211 14.335-39.5497 35.275-39.5497 16.068 0 13.338 21.4124-3.011 21.4124 2.959 2.1316 6.562 3.4213 10.485 3.4213 8.805 0 16.103-6.3269 17.665-14.6802 4.495 2.8382 10.582 1.3164 12.737-3.8116l34.48-82.098912-108.824 68.016512v-11.9596c0-5.1398-5.483-8.4236-10.013-5.9959-2.207 1.1845-3.588 3.489-3.588 5.9959v109.1318 109.126c0 2.507 1.381 4.809 3.588 5.996 4.53 2.428 10.013-.856 10.013-5.996zm69.146.37c0 5.011-4.061 9.071-9.075 9.071-5.011 0-9.072-4.063-9.072-9.071 0-5.011 4.061-9.075 9.072-9.075 5.014 0 9.075 4.064 9.075 9.075zm-18.144-218.9914c0-5.0108 4.061-9.0716 9.072-9.0716s9.074 4.0638 9.074 9.0716c0 5.0108-4.06 9.0746-9.074 9.0746-5.011 0-9.072-4.0638-9.072-9.0746zm28.403 109.4954s6.535-6.875 14.595-6.875 14.596 6.875 14.596 6.875-6.536 6.876-14.596 6.876c-8.063 0-14.595-6.876-14.595-6.876z"/><path d="m368.035 438.382-.295-8.85 41.694-42.874h8.358l-30.385 31.861-4.13 4.425zm-6.294 17.111v-68.835h7.277v68.835zm49.463 0-29.697-34.221 4.916-5.31 33.434 39.531zm20.447 0v-68.835h7.277v68.835zm43.047 0v-62.541h-24.19v-6.294h55.657v6.294h-24.19v62.541zm72.026.59c-5.179 0-9.965-.853-14.357-2.557-4.393-1.77-8.195-4.228-11.407-7.375s-5.736-6.851-7.572-11.112c-1.77-4.261-2.655-8.916-2.655-13.963 0-5.048.885-9.703 2.655-13.964 1.836-4.261 4.36-7.965 7.572-11.112 3.278-3.147 7.113-5.572 11.505-7.277 4.392-1.77 9.178-2.655 14.357-2.655 4.982 0 9.669.853 14.062 2.557 4.392 1.639 8.096 4.13 11.112 7.474l-4.622 4.621c-2.819-2.884-5.933-4.949-9.342-6.195-3.409-1.311-7.08-1.967-11.013-1.967-4.13 0-7.966.722-11.506 2.164-3.54 1.377-6.621 3.376-9.243 5.998-2.622 2.557-4.687 5.573-6.195 9.047-1.442 3.409-2.163 7.178-2.163 11.309 0 4.13.721 7.932 2.163 11.406 1.508 3.409 3.573 6.425 6.195 9.047 2.622 2.557 5.703 4.556 9.243 5.999 3.54 1.376 7.376 2.065 11.506 2.065 3.933 0 7.604-.656 11.013-1.967s6.523-3.409 9.342-6.294l4.622 4.622c-3.016 3.344-6.72 5.868-11.112 7.572-4.393 1.704-9.113 2.557-14.16 2.557zm91.131-69.425h7.179v68.835h-7.179zm-43.07 68.835h-7.277v-68.835h7.277zm43.759-31.762h-44.546v-6.392h44.546zm35.447-6.294h36.384v6.195h-36.384zm.787 31.762h41.398v6.294h-48.675v-68.835h47.2v6.294h-39.923zm58.503 6.294v-68.835h5.999l47.495 59.788h-3.146v-59.788h7.178v68.835h-5.998l-47.398-59.788h3.147v59.788z"/></g></svg>